<svg width="65" height="64" viewBox="0 0 65 64" fill="none" xmlns="http://www.w3.org/2000/svg">
<mask id="mask0_1400_11115" style="mask-type:alpha" maskUnits="userSpaceOnUse" x="0" y="0" width="65" height="64">
<rect x="0.5" width="64" height="64" fill="#D9D9D9"/>
</mask>
<g mask="url(#mask0_1400_11115)">
<path d="M35.4333 61.3333C31.7 61.3333 28.2 60.6222 24.9333 59.2C21.6667 57.7778 18.8222 55.8556 16.4 53.4333C13.9778 51.0111 12.0556 48.1667 10.6333 44.9C9.21111 41.6333 8.5 38.1333 8.5 34.4C8.5 27.9111 10.5667 22.1889 14.7 17.2333C18.8333 12.2778 24.1 9.2 30.5 8C29.7 12.4 29.9444 16.7 31.2333 20.9C32.5222 25.1 34.7444 28.7778 37.9 31.9333C41.0556 35.0889 44.7333 37.3111 48.9333 38.6C53.1333 39.8889 57.4333 40.1333 61.8333 39.3333C60.6778 45.7333 57.6111 51 52.6333 55.1333C47.6556 59.2667 41.9222 61.3333 35.4333 61.3333Z" fill="white"/>
</g>
</svg>
